<?xml version="1.0" standalone="no"?>
<!DOCTYPE svg PUBLIC "-//W3C//DTD SVG 1.1//EN" "http://www.w3.org/Graphics/SVG/1.1/DTD/svg11.dtd" >
<svg xmlns="http://www.w3.org/2000/svg">
<metadata>
Created by FontForge 20120731 at Sat Dec 26 23:15:56 2015
 By Ads
</metadata>
<defs>
<font id="iconfont" horiz-adv-x="1024" >
  <font-face 
    font-family="iconfont"
    font-weight="500"
    font-stretch="normal"
    units-per-em="1024"
    panose-1="2 0 6 3 0 0 0 0 0 0"
    ascent="896"
    descent="-128"
    x-height="792"
    bbox="7 -139 1017.54 896"
    underline-thickness="50"
    underline-position="-100"
    unicode-range="U+0078-E646"
  />
<missing-glyph horiz-adv-x="374" 
d="M34 0v682h272v-682h-272zM68 34h204v614h-204v-614z" />
    <glyph glyph-name=".notdef" horiz-adv-x="374" 
d="M34 0v682h272v-682h-272zM68 34h204v614h-204v-614z" />
    <glyph glyph-name=".null" horiz-adv-x="0" 
 />
    <glyph glyph-name="nonmarkingreturn" horiz-adv-x="341" 
 />
    <glyph glyph-name="x" unicode="x" horiz-adv-x="1001" 
d="M281 543q-27 -1 -53 -1h-83q-18 0 -36.5 -6t-32.5 -18.5t-23 -32t-9 -45.5v-76h912v41q0 16 -0.5 30t-0.5 18q0 13 -5 29t-17 29.5t-31.5 22.5t-49.5 9h-133v-97h-438v97zM955 310v-52q0 -23 0.5 -52t0.5 -58t-10.5 -47.5t-26 -30t-33 -16t-31.5 -4.5q-14 -1 -29.5 -0.5
t-29.5 0.5h-32l-45 128h-439l-44 -128h-29h-34q-20 0 -45 1q-25 0 -41 9.5t-25.5 23t-13.5 29.5t-4 30v167h911zM163 247q-12 0 -21 -8.5t-9 -21.5t9 -21.5t21 -8.5q13 0 22 8.5t9 21.5t-9 21.5t-22 8.5zM316 123q-8 -26 -14 -48q-5 -19 -10.5 -37t-7.5 -25t-3 -15t1 -14.5
t9.5 -10.5t21.5 -4h37h67h81h80h64h36q23 0 34 12t2 38q-5 13 -9.5 30.5t-9.5 34.5q-5 19 -11 39h-368zM336 498v228q0 11 2.5 23t10 21.5t20.5 15.5t34 6h188q31 0 51.5 -14.5t20.5 -52.5v-227h-327z" />
    <glyph glyph-name="uniE600" unicode="&#xe600;" 
d="M849 -43h-277v286h342v-221q0 -6 -1 -11t-2.5 -10t-4 -9.5t-5.5 -8.5t-6.5 -7.5t-7.5 -6.5t-8.5 -5t-9.5 -3.5t-10 -2.5t-10 -1zM572 577q-9 3 -14.5 4.5t-13.5 5t-12 6.5q0 1 -0.5 1.5t-1.5 0.5v-1q-1 0 -1 -1q-2 -2 -4 -3.5t-4.5 -3t-4.5 -3t-4 -2.5l-6 -2q-2 -1 -5 -2
v-263h-360v227q0 17 8.5 32t23.5 24t33 9h151q-28 15 -47 33q-29 27 -43 61t-9 66t28 53q29 28 75 28q31 0 62 -13t57 -37q10 -10 19.5 -21t17 -23t13.5 -25q5 9 10.5 18.5t12 18.5t13.5 17t15 15q53 50 119 50q45 0 75 -28q35 -32 27.5 -85t-52.5 -95q-19 -18 -46 -33h145
q27 0 46 -19t19 -46v-227h-342v263zM435 748q-16 15 -35.5 23.5t-38.5 8.5q-20 0 -30 -9l-1 -1q-1 -1 -2.5 -3t-2 -4.5t-1.5 -6t-1 -6.5q0 -33 33 -63q21 -20 53 -34t58 -14q6 0 10 1t5 2h2q3 6 -1 23.5t-16.5 41.5t-31.5 41zM578 641l2 -1q2 0 5.5 -0.5t7.5 -0.5
q26 0 58 14t54 34q11 11 19 23t10.5 21.5t2.5 17.5q0 4 -0.5 7.5t-1.5 6t-2 4.5t-2 2.5t-2 1.5q-10 9 -29 9t-38.5 -8.5t-35.5 -23.5q-28 -25 -41 -60t-7 -47zM501 -43h-295q-27 0 -46 19t-19 46v221h360v-286z" />
    <glyph glyph-name="uniE601" unicode="&#xe601;" 
d="M952 339l-451 451q-8 8 -22 14.5t-25 7.5l-244 22q-11 1 -25 -4t-22 -13l-56 -55q-8 -8 -13 -22t-4 -26l22 -244q1 -11 7.5 -25t14.5 -22l451 -451q4 -4 9 -6t10.5 -2t10.5 2t9 6l328 328q8 8 8 19.5t-8 19.5zM279 644q-5 -5 -11 -8.5t-12.5 -5.5t-13 -3t-13 0t-13 3
t-12 5.5t-10.5 8.5q-18 18 -18 43t17.5 42.5t42.5 17.5t43 -18q11 -11 15 -26.5t0 -31t-15 -27.5z" />
    <glyph glyph-name="uniE602" unicode="&#xe602;" 
d="M893 768q29 0 49 -20t20 -49v-52q0 -29 -20 -48.5t-49 -19.5h-760q-29 0 -48.5 19.5t-19.5 48.5v52q0 29 19.5 49t48.5 20h760zM893 447q29 0 49 -19.5t20 -48.5v-52q0 -29 -20 -49t-49 -20h-760q-29 0 -48.5 20t-19.5 49v52q0 29 19.5 48.5t48.5 19.5h760zM893 127
q29 0 49 -20t20 -49v-52q0 -29 -20 -48.5t-49 -19.5h-760q-29 0 -48.5 19.5t-19.5 48.5v52q0 29 19.5 49t48.5 20h760z" />
    <glyph glyph-name="uniE603" unicode="&#xe603;" 
d="M820 99q0 -25 -10 -47t-27.5 -38.5t-41 -26t-51.5 -9.5h-357q-28 0 -51.5 9.5t-41 26t-27.5 38.5t-10 47v675q0 25 10 47.5t27.5 39t41 26t51.5 9.5h357q28 0 51.5 -9.5t41 -26t27.5 -39t10 -47.5v-675zM739 726h-456v-578h456v578zM511 120q-21 0 -36.5 -15t-15.5 -37
t15.5 -37.5t36.5 -15.5q22 0 37 15.5t15 37.5t-15 37t-37 15zM592 811q0 8 -5 12.5t-12 4.5h-128q-5 0 -10.5 -4.5t-5.5 -12.5t5 -12.5t11 -4.5h128q7 0 12 4.5t5 12.5z" />
    <glyph glyph-name="uniE604" unicode="&#xe604;" 
d="M346 89q20 0 37 -7t30 -20t20.5 -30.5t7.5 -37t-7.5 -36.5t-20.5 -30t-30 -20.5t-37 -7.5t-37.5 7.5t-30.5 20.5t-20.5 30t-7.5 36.5t7.5 37t20.5 30.5t30.5 20t37.5 7zM772.5 87q19.5 0 37 -7t30.5 -20t20.5 -30.5t7.5 -37t-7.5 -36.5t-20.5 -30t-30.5 -20.5t-37 -7.5
t-37 7.5t-30.5 20.5t-20.5 30t-7.5 36.5t7.5 37t20.5 30.5t30.5 20t37 7zM944 669q29 0 45 -8t22.5 -19t6 -24t-3.5 -22t-13.5 -38t-22 -63t-23.5 -68t-19 -53q-13 -41 -33 -57t-50 -16h-36h-65h-86h-97h-254l15 -92h517q49 0 49 -42q0 -21 -9.5 -35.5t-38.5 -14.5h-49h-94
h-119h-120h-99h-56q-20 0 -34 9t-23 24t-15 32.5t-9 32.5q-1 6 -5.5 29.5t-11 59t-15 79t-16.5 87.5q-19 103 -44 230h-77q-15 0 -25 8t-17 18.5t-9.5 23t-2.5 22.5q0 21 14 34t37 13h22h21h26h35q20 0 32.5 -6t19.5 -15.5t10 -19.5t5 -17q2 -8 4.5 -23t4.5 -30q3 -19 6 -39
h700zM867 701h-374l135 136q23 23 51.5 23.5t51.5 -22.5z" />
    <glyph glyph-name="uniE605" unicode="&#xe605;" 
d="M751 113h-496v684h496v-684zM306 164h394v581h-394v-581zM548 28q0 -11 -5.5 -21t-15 -15.5t-21.5 -5.5q-17 0 -29.5 12.5t-12.5 29.5t12.5 29.5t29.5 12.5q9 0 17 -3.5t13.5 -9t8.5 -13t3 -16.5zM749 -110h-492q-36 0 -61.5 25.5t-25.5 61.5v818q0 36 25.5 61.5
t61.5 25.5h492q36 0 62 -25.5t26 -61.5v-818q0 -36 -26 -61.5t-62 -25.5zM257 831q-5 0 -9.5 -1.5t-8.5 -4t-7.5 -5.5t-6 -7t-3.5 -8.5t-1 -9.5v-818q0 -14 10.5 -24.5t25.5 -10.5h492q15 0 25.5 10.5t10.5 24.5v818q0 25 -23 33q-6 3 -13 3h-492z" />
    <glyph glyph-name="uniE606" unicode="&#xe606;" 
d="M861 639q4 -8 6 -18q1 -6 1.5 -11.5t0.5 -11.5q0 -11 -4 -23t-14 -22q-11 -11 -20 -19q-2 -3 -4.5 -5.5t-5 -4.5t-4.5 -4q-7 -8 -14 -13l-167 167q11 10 26 24q14 14 24 22q4 3 8.5 5.5t9 4.5t8.5 4q14 4 27 3.5t25 -4t21 -8.5q18 -10 41 -34.5t35 -51.5zM165 203
q6 6 25.5 26t49.5 49l65 66l72 72l192 192l167 -168l-192 -192l-71 -72l-34 -34q-16 -16 -31 -30q-28 -29 -47 -48t-22 -21q-9 -8 -20.5 -17t-24.5 -15q-12 -6 -36.5 -15t-50.5 -17.5t-50 -14.5t-35 -8q-25 -3 -33 7t-4 33q2 13 8.5 36.5t14 49t15 47t11.5 29.5q5 12 12 23
q2 3 5 6.5t6.5 7.5t7.5 8zM165 203zM463 35h80v-80h-80v80zM626 35h80v-80h-80v80zM789 35h80v-80h-80v80z" />
    <glyph glyph-name="uniE607" unicode="&#xe607;" 
d="M381 90v155h544v-155h-544zM381 478h544v-155h-544v155zM381 711h544v-155h-544v155zM148 245h156v-155h-156v155zM148 478h156v-155h-156v155zM148 711h156v-155h-156v155z" />
    <glyph glyph-name="uniE608" unicode="&#xe608;" 
d="M512 806q-115 0 -212.5 -56.5t-154 -154t-56.5 -211.5q0 -86 33.5 -164.5t90 -135t135 -89.5t164.5 -33q114 0 211.5 56.5t154 153.5t56.5 212q0 69 -21.5 133t-60.5 116t-91 91t-116.5 60.5t-132.5 21.5zM679 412v-58h-110v-83h111v-55h-112v-111h-111v111h-114v55h114
v84h-114v56h113l-136 228h73l121 -196l118 196h70l-134 -227h111z" />
    <glyph glyph-name="uniE609" unicode="&#xe609;" 
d="M527.5 852q-91.5 0 -175 -35.5t-143.5 -95.5t-95.5 -143.5t-35.5 -175t35.5 -174.5t95.5 -143.5t143.5 -96t175 -35.5t175 35.5t143.5 96t95.5 143.5t35.5 174.5t-35.5 175t-95.5 143.5t-143.5 95.5t-175 35.5zM703 291q17 -17 17 -41t-17 -40.5t-40.5 -16.5t-40.5 16
l-94 95l-94 -95q-17 -16 -41 -16t-40.5 16.5t-16.5 40.5t17 41l94 94l-94 94q-17 17 -17 40.5t17 40.5q11 11 25.5 15t29.5 0t26 -15l94 -94l94 94q17 17 40.5 17t40.5 -17q11 -11 15 -26t0 -29.5t-15 -25.5l-94 -94z" />
    <glyph glyph-name="uniE60A" unicode="&#xe60a;" 
d="M527.5 847q-90.5 0 -173.5 -35t-142.5 -95t-95 -142.5t-35.5 -173.5t35.5 -174t95 -142.5t142.5 -95t173.5 -35.5t173.5 35.5t143 95t95 142.5t35 174t-35 173.5t-95 142.5t-143 95t-173.5 35zM528 105q-12 0 -22.5 4.5t-18 12t-12 18.5t-4.5 22q0 24 16.5 40.5t40 16.5
t40 -16.5t16.5 -40t-16.5 -40.5t-39.5 -17zM584 347q0 -16 -7.5 -29t-20.5 -20.5t-28 -7.5q-24 0 -40.5 16.5t-16.5 40.5v243q0 23 16.5 40t40 17t40 -17t16.5 -40v-243z" />
    <glyph glyph-name="uniE60B" unicode="&#xe60b;" 
d="M529.5 848q-91.5 0 -175 -36t-143.5 -96t-95.5 -143.5t-35.5 -174.5q0 -73 22.5 -142t64 -124t97 -96.5t124 -64.5t142.5 -23q91 0 174.5 36t143.5 96t95.5 143t35.5 174.5t-35.5 175t-95.5 143.5t-143.5 96t-175 36zM747 419l-221 -222q-17 -17 -41 -16q-6 -1 -11.5 0.5
t-10.5 3.5t-10 5t-9 7l-117 117q-17 17 -17 40.5t17 40.5t41 17t40 -17l77 -76l181 181q7 6 15 10.5t17 5.5t17.5 0t17 -5.5t14.5 -10.5q17 -17 17 -41t-17 -40z" />
    <glyph glyph-name="uniE60C" unicode="&#xe60c;" 
d="M681 245q45 50 67 113.5t20 127.5t-28 126t-74 111q-50 50 -115.5 76t-131.5 26t-131.5 -26t-115.5 -76q-67 -67 -91 -157t0 -180t91 -157q64 -65 150 -89.5t173 -5t155 79.5l265 -266l31 31zM649 274l-28 -29q-90 -79 -211.5 -75.5t-207.5 89.5q-90 90 -90 217t90 216.5
t217 89.5t216 -90q86 -85 90 -206.5t-76 -211.5z" />
    <glyph glyph-name="uniE60D" unicode="&#xe60d;" 
d="M775 816h-527q-20 0 -34 -14t-14 -34v-766q0 -20 14 -34t34 -14h527q13 0 24 6.5t17.5 17.5t6.5 24v766q0 20 -14 34t-34 14zM775 26q0 -10 -7 -17t-17 -7h-479q-10 0 -17 7t-7 17v167h527v-167zM775 241h-527v503q0 10 7 17t17 7h479q10 0 17 -7t7 -17v-503zM512 50
q13 0 24 6t17.5 17.5t6.5 24.5q0 5 -1.5 10.5t-4 10t-5.5 9t-7 7.5t-9 5.5t-10.5 3.5t-10.5 1q-20 0 -34 -14t-14 -33q0 -13 6.5 -24.5t17.5 -17.5t24 -6z" />
    <glyph glyph-name="uniE60E" unicode="&#xe60e;" 
d="M809 520q0 81 -40.5 149.5t-109.5 108t-151 39.5q-124 0 -212 -87t-88 -210q0 -69 30.5 -130t84.5 -103q-96 -48 -156 -137t-68 -197h45q8 102 69 185.5t154 119.5q74 -35 141 -35q68 0 130 30l31 18l25 16q53 42 84 103t31 130zM508 272q-104 0 -177.5 72.5t-73.5 175.5
q0 51 20 97t53.5 79.5t80 53t97.5 19.5q69 0 127 -33.5t91.5 -90.5t33.5 -125q0 -20 -3 -40t-9 -38.5t-15 -35.5t-20 -32.5t-24.5 -29t-29 -24.5t-33 -20t-36.5 -15.5t-39.5 -9.5t-42.5 -3zM763 244l-1 -1q-3 4 -8 6t-10 2q-28 0 -28 -21q0 -8 4 -14t11 -10
q118 -85 131 -253h55q-6 86 -46.5 162t-107.5 129z" />
    <glyph glyph-name="uniE60F" unicode="&#xe60f;" 
d="M919.5 375q5.5 0 10.5 3t8 7.5t3 10.5v239q0 34 -24 58t-58 24h-699q-34 0 -58 -24t-24 -58v-495q0 -34 24 -58t58 -24h699q34 0 58 24t24 58v91q0 9 -6.5 15t-15.5 6q-5 0 -10 -3t-8 -7.5t-3 -10.5v0v-87q0 -6 -1.5 -11.5t-4.5 -10t-7 -8.5t-8.5 -7t-10 -4.5t-11.5 -1.5
h-434h-257q-11 0 -21 6t-16 16t-6 21v487q0 17 13 30t30 13h691q12 0 21.5 -6t15.5 -16t6 -21v-235q0 -6 3 -10.5t8 -7.5t10.5 -3zM285 561q0 3 -1.5 6t-4 4.5t-6.5 1.5h-57q-5 0 -8.5 -3.5t-3.5 -8.5v-57q0 -5 3.5 -8.5t8.5 -3.5h57q5 0 8.5 3.5t3.5 8.5v57zM285 414
q0 3 -1.5 5.5t-4 4t-6.5 1.5h-57q-5 0 -8.5 -3t-3.5 -8v-58q0 -3 1.5 -5.5t4.5 -4t6 -1.5h57q5 0 8.5 3t3.5 8v58zM273 278h-57q-5 0 -8.5 -3.5t-3.5 -8.5v-58q0 -11 12 -11h57q5 0 8.5 3.5t3.5 7.5v58q-2 10 -12 12zM793 476h-446q-6 0 -11 -2.5t-8 -7.5t-3 -11
q0 -5 2 -8.5t5 -6.5t7 -5t8 -2h446q9 0 15.5 6.5t6.5 15.5t-6.5 15t-15.5 6zM793 331h-446q-9 0 -15.5 -6t-6.5 -15q0 -5 2 -9t5 -6.5t7 -4.5t8 -2h446q6 0 11 3t8 8t3 11q0 2 -0.5 4.5t-1.5 4.5t-2.5 4t-3.5 3.5t-4 2.5t-4.5 1.5t-5.5 0.5z" />
    <glyph glyph-name="uniE610" unicode="&#xe610;" 
d="M943 389q0 117 -58 216t-157 156.5t-216 57.5q-50 0 -98.5 -11t-90.5 -32.5t-79.5 -51t-67 -66.5t-50.5 -79.5t-32.5 -91t-11.5 -98.5q0 -117 57.5 -216t156.5 -156.5t216 -57.5q143 0 259 88q5 5 5 12q0 8 -5.5 13.5t-13.5 5.5q-3 0 -5.5 -0.5t-4.5 -2t-4 -3.5
q-103 -76 -230 -76q-106 0 -196 52.5t-142 142t-52 195.5t52 195.5t142 142t196 52.5t195.5 -52.5t141.5 -142t52 -195.5q0 -49 -11 -95t-33 -87v-1q-1 -3 -1 -5q0 -8 5.5 -13.5t13.5 -5.5q13 0 18 13q49 94 49 197zM400 505q0 18 -13 30.5t-31 12.5t-30.5 -12.5
t-12.5 -30.5t12.5 -31t30.5 -13t31 13t13 31zM670 548q-4 0 -8 -0.5t-7.5 -2t-6.5 -3.5t-6 -4.5t-5.5 -5t-4.5 -6t-3 -6.5l-2 -8q-1 -3 -1 -7q0 -18 13 -31t31 -13q12 0 22 6t15.5 16t5.5 22q0 8 -3.5 16.5t-9 14t-13.5 9t-17 3.5zM702 265q0 5 -1.5 9t-4.5 6.5t-7 4.5t-8 2
q-1 0 -5 -1h-1q-84 -39 -162 -39q-76 0 -160 38h-1q-4 2 -7 2q-9 0 -15 -6.5t-6 -15.5q0 -13 11 -19q94 -43 177 -43t178 43q12 7 12 19z" />
    <glyph glyph-name="uniE611" unicode="&#xe611;" 
d="M949 386q0 89 -34.5 170t-93.5 139.5t-139.5 93t-169.5 34.5t-170 -34.5t-139.5 -93t-93 -139.5t-34.5 -170t34.5 -170t93 -139.5t139.5 -93t170 -34.5q48 0 95.5 11t89 30.5t78.5 48.5q2 2 3.5 5.5t1.5 6.5q0 5 -2.5 9.5t-7 7.5t-10.5 3q-2 0 -4 -0.5t-4 -1.5l-2 -2
l-4 -2q-33 -25 -70 -42t-79 -26.5t-85 -9.5q-107 0 -198.5 53t-144.5 144.5t-53 198.5q0 65 20 125.5t57 109t85.5 85t109 56.5t124.5 20q108 0 199 -53t144 -144t53 -199q0 -50 -11.5 -96.5t-33.5 -88.5v0l-1 -5q0 -6 2.5 -10.5t7 -7t9.5 -2.5q14 0 18 13q50 95 50 200z
M397 503.5q0 18.5 -13 31.5t-31 13q-12 0 -22 -6t-16 -16t-6 -22q0 -19 13 -31.5t31 -12.5t31 12.5t13 31zM671.5 548q-18.5 0 -31.5 -13t-13 -31.5t13 -31t32 -12.5q12 0 22 5.5t16 16t6 22.5q0 18 -13 31t-31.5 13zM342 225q3 0 7 1q78 35 163 35q44 0 85.5 -9t79.5 -26
q5 -1 6 -1q9 0 15.5 6t6.5 15q0 6 -3.5 11.5t-8.5 8.5h-1q-42 19 -87.5 29t-92.5 10q-93 0 -181 -39q-3 -2 -5.5 -5t-4 -6.5t-1.5 -8.5q0 -9 6.5 -15t15.5 -6z" />
    <glyph glyph-name="uniE612" unicode="&#xe612;" 
d="M950 386q0 89 -34.5 170.5t-93 140t-140 93.5t-170.5 35t-170.5 -35t-140 -93.5t-93 -140t-34.5 -170.5t34.5 -170t93 -140t140 -93.5t170.5 -34.5q146 0 264 89q5 6 5 13q0 4 -1.5 7.5t-4 6t-6.5 4.5t-8 2t-7.5 -2t-6.5 -4q-33 -25 -70 -42t-79 -26.5t-86 -9.5
q-107 0 -198.5 53t-145 144.5t-53.5 199.5t53.5 199.5t145 144.5t199 53t199 -53t144.5 -144.5t53 -199.5q0 -100 -45 -185v-1q-1 -3 -1 -5q0 -5 2.5 -9.5t7 -7.5t10.5 -3t11 4t7 9q49 96 49 201zM539 499q0 9 -6.5 16t-16 7t-16.5 -7t-7 -16v-328q0 -10 7 -16.5t16.5 -6.5
t16 6.5t6.5 16.5v328zM516 620q-3 0 -7 -1.5t-6.5 -3.5t-5 -5t-3.5 -6.5t-1 -7.5q0 -9 7 -16t16.5 -7t16.5 7t7 16.5t-7 16.5t-17 7z" />
    <glyph glyph-name="uniE613" unicode="&#xe613;" 
d="M916.5 484q-9.5 0 -16 -6.5t-6.5 -16.5v0v-403q0 -19 -13.5 -32t-31.5 -13h-435h-247q-19 0 -32 13t-13 32v658q0 12 6 22.5t16.5 16.5t22.5 6h439q9 0 16 7t7 16t-7 16t-16 7h-444q-23 0 -43 -11.5t-31.5 -31.5t-11.5 -44v-222v-444q0 -36 25.5 -61.5t60.5 -25.5h691
q24 0 43.5 11.5t31.5 31.5t12 44v407q-1 10 -7.5 16.5t-16 6.5zM494 193l433 432q12 13 16 30.5t-1.5 36t-20.5 32.5l-40 40q-22 22 -51 23.5t-48 -17.5l-432 -432zM814 738q5 4 11.5 5.5t13.5 -0.5t13 -7l40 -41q9 -8 9.5 -19t-7.5 -19l-47 -48l-80 81zM813 575l-322 -321
l-80 80l322 322zM350 337l-45 -163q-3 -12 5 -20q4 -4 9.5 -5.5t10.5 0.5l163 44l-33 34l-106 -29l29 105z" />
    <glyph glyph-name="uniE614" unicode="&#xe614;" 
d="M510 -5q-12 0 -75 48.5t-140 119.5t-117 121q-29 27 -53 66t-38 81t-14 76q0 112 71 191t171 79q30 0 59 -11.5t53.5 -31.5t45 -43.5t37.5 -51.5q22 38 50 67.5t66.5 50t77.5 20.5q100 0 171 -79t71 -191q0 -34 -14 -76.5t-38.5 -81.5t-53.5 -65q-71 -92 -223 -215
q-90 -73 -107 -74zM315 731q-39 0 -75.5 -18t-63 -48t-42 -71t-15.5 -87q0 -44 27 -100t64 -90q2 -1 3 -3q30 -38 74 -81.5t91 -82t77 -62t56 -42.5q35 26 80 62t111 96.5t103 109.5q2 1 3 3q38 33 65 89.5t27 100.5q0 93 -57.5 158.5t-138.5 65.5q-50 0 -97.5 -44
t-76.5 -106q-5 -12 -20.5 -12t-20.5 12q-29 62 -76.5 106t-97.5 44z" />
    <glyph glyph-name="uniE615" unicode="&#xe615;" 
d="M730 -8l-394 392l394 392q5 5 7 11.5t1 12.5t-6 10q-6 7 -16.5 6.5t-18.5 -8.5l-406 -404q-1 -1 -2.5 -3t-2.5 -4t-1.5 -4.5t-1 -4.5t-0.5 -4q0 -5 2 -10.5t7 -9.5l405 -404q5 -5 11.5 -7t13 -1t10.5 6q7 6 6.5 16.5t-8.5 17.5z" />
    <glyph glyph-name="uniE616" unicode="&#xe616;" 
d="M289 -42q7 -7 17 -6.5t18 8.5l406 404q9 8 8 20q1 12 -8 20l-406 404q-8 8 -18 8.5t-16.5 -6t-6 -17t8.5 -17.5l394 -392l-394 -392q-5 -5 -7.5 -11.5t-1 -12.5t5.5 -10z" />
    <glyph glyph-name="uniE617" unicode="&#xe617;" 
d="M937 162.5q7 6.5 6 17t-8 17.5l-404 406q-8 9 -20 9t-21 -9l-403 -406q-5 -5 -7 -11.5t-1 -12.5t5 -11q7 -6 17 -5.5t18 8.5l392 394l391 -394q8 -8 18 -8.5t17 6z" />
    <glyph glyph-name="uniE618" unicode="&#xe618;" 
d="M902 603l-391 -394l-392 394q-5 5 -11.5 7t-12.5 1t-10.5 -5.5t-5.5 -10.5t1 -12.5t7 -11.5l403 -406q3 -3 6.5 -5t7 -3t7.5 -1q3 0 7 1t7 3t6 5l404 406q4 3 6 8t2.5 9.5t-1.5 9t-5 8.5q-4 4 -10.5 5t-12.5 -1t-12 -7z" />
    <glyph glyph-name="uniE619" unicode="&#xe619;" 
d="M510 -44q-116 0 -215.5 57.5t-157 157t-57.5 216t57.5 216t157 157t216 57.5t215.5 -57.5t157 -157t58 -216.5q0 -165 -111 -288q-107 -119 -265 -139q-27 -3 -55 -3zM510 772q-104 0 -192.5 -52t-140 -140.5t-51.5 -193.5q0 -78 30.5 -149t82 -123t122.5 -82.5
t149.5 -30.5t149.5 30.5t122.5 82.5t82 123t30.5 149.5t-30.5 149.5t-82 122.5t-122.5 82.5t-150 31z" />
    <glyph glyph-name="uniE61A" unicode="&#xe61a;" 
d="M926 613l1 4q0 1 -1 2v2v1q-1 4 -3 7l-1 1q-2 3 -5 6l-2 1l-6 2q0 1 -1 1h-2h-2l-1 1h-543h-100l-29 89q-4 17 -22 18l-1 1l-83 15q-7 1 -12.5 -1.5t-9.5 -7t-5 -11.5q-2 -10 4 -17.5t15 -9.5l72 -13l123 -380l-57 -141v-1l-1 -1l-2 -4l-1 -5v-1v-2v-1q0 -3 1 -5
q1 -3 1 -4q1 -1 3 -4q1 -1 1.5 -2t1.5 -1l1 -1v-1l2 -1h1l4 -2q2 -1 6 -1h1v0h594q9 0 16 7t7 16.5t-7 16.5t-16 7h-551l36 104l3 -7h92h341h1h1h1q6 -1 12 1t10.5 6.5t5.5 10.5l104 299l1 2l1 3v0v1zM404 89q-7 0 -14 -2t-12 -6t-9 -9t-6 -11.5t-2 -13.5q0 -18 12.5 -30.5
t30 -12.5t30 12.5t12.5 30t-12.5 30t-29.5 12.5zM731 89q-9 0 -17 -3t-13.5 -9t-9 -14t-3.5 -16q0 -18 12.5 -30.5t30.5 -12.5t30.5 12.5t12.5 30t-12.5 30t-30.5 12.5z" />
    <glyph glyph-name="uniE61B" unicode="&#xe61b;" 
d="M799 518q0 118 -85 202t-205 84q-78 0 -144.5 -38.5t-105.5 -104.5t-39 -143q0 -67 29.5 -126t81.5 -99q-92 -46 -150 -132t-65 -190h43q8 99 66.5 179.5t148.5 114.5q71 -33 135 -33q66 0 126 28l29 17l24 16q52 40 81.5 99t29.5 126zM754 251q-2 2 -5 3.5t-6 2.5t-7 1
q-26 0 -26 -20q0 -15 14 -23q114 -82 127 -244h52q-5 84 -44.5 157t-104.5 123z" />
    <glyph glyph-name="uniE61C" unicode="&#xe61c;" 
d="M460 289h234q5 0 10 2t8.5 5t5.5 8t2 10q0 10 -8 17t-18 7h-234q-11 0 -18.5 -7t-7.5 -17q0 -3 0.5 -6t2 -5.5t3 -4.5t4.5 -4l4 -2q3 -2 6 -2.5t6 -0.5zM382 72h288v1q2 0 4.5 1t5 3t4 4t2 5t0.5 6q0 7 -4.5 12.5t-11.5 6.5h-300q-20 0 -36 22t-16 44v415v2v1
q0 9 -6 14.5t-14 5.5t-14 -5.5t-6 -14.5v-418q0 -27 14.5 -51.5t38.5 -39t51 -14.5zM694 806l-312 1q-38 0 -68 -25.5t-34 -62.5q0 -1 -0.5 -2t-0.5 -2v0q0 -8 6 -14t14 -6t14 6t6 14q5 20 19.5 36t31.5 16h284v-25v-25v-22v-19v-14v-10v-3q0 -41 25 -66.5t67 -25.5h90v-380
q0 -31 -19 -48.5t-43 -17.5q-5 0 -9.5 -3t-7 -7t-2.5 -9.5t2.5 -9.5t7 -7t9.5 -3v0h1h2h1q39 3 68 34.5t29 70.5v419zM746 596q-20 0 -36 28t-16 51v79l130 -158h-78zM460 413h234q10 0 18 7t8 17t-8 17.5t-18 7.5h-234q-5 0 -10 -2t-8.5 -5.5t-5.5 -8t-2 -9.5
q0 -10 7.5 -17t18.5 -7zM717 55q-14 0 -17 -15h-1q-6 -12 -12 -20t-13.5 -11t-11 -3.5t-13 0t-12.5 0.5h-385q-20 0 -42 22.5t-22 43.5v502q0 18 18 38.5t38 24.5v1q3 0 6 1t5 3l4 4q2 2 3 5t1 6q0 17 -16 20h-3v1l-1 -1v1h-3l-1 -1q-38 -4 -64.5 -34.5t-26.5 -68.5v-502
q0 -41 31.5 -73t72.5 -32h390q73 0 90 61q3 5 3 9t-2.5 8.5t-6.5 7t-9 2.5z" />
    <glyph glyph-name="uniE61D" unicode="&#xe61d;" 
d="M508 808q-113 0 -209.5 -56.5t-152.5 -153.5t-56 -212q0 -86 33 -164t89 -134.5t133.5 -90t162.5 -33.5q114 0 210 56.5t152.5 154t56.5 211.5q0 43 -9 85t-24.5 79.5t-38.5 71.5t-51 62.5t-62 51.5t-71 39t-78.5 24.5t-84.5 8.5zM508 -4q-127 0 -230 77q19 7 53 20
q77 27 89 35q32 20 23 112v6l-16 14q-4 37 -13 51q-6 11 -15 35t-15 42l-2 5l-4 3q-1 1 -2.5 3t-4 7t-2.5 10t2.5 10t4.5 6l2 3l8 6l-2 10q-12 64 -12 94q0 34 14.5 58.5t38.5 35t46 15t46 4.5q25 0 45.5 -5t40.5 -16.5t31.5 -35t11.5 -56.5q0 -11 -0.5 -25t-1.5 -25.5
t-2 -22.5t-1.5 -16t-0.5 -6l-1 -9l7 -6q9 -8 10 -19q0 -11 -10 -20l-4 -3l-1 -5q-2 -3 -5.5 -13.5t-11.5 -31t-14 -33.5q-8 -14 -12 -50l-16 -14l-1 -6q-1 -7 -1 -14v-20q0 -12 1 -23t3.5 -22t7.5 -20t12 -13q13 -8 91 -32l52 -16q-106 -84 -239 -84zM775 104q-16 6 -71 23
q-73 22 -82 28q-6 4 -8.5 26.5t-0.5 49.5l15 14l1 6q4 34 9 44q6 12 13.5 30t11 28.5t7.5 20.5q3 3 5.5 6.5t5.5 9t5 12t2 14.5q0 12 -4.5 21.5t-10.5 16.5q5 56 5 91q0 69 -42 107t-119 38q-84 0 -130.5 -38t-46.5 -107q0 -36 11 -92q-6 -7 -10.5 -16t-4.5 -21
q0 -14 6 -24.5t13 -17.5q19 -58 32 -79q5 -10 8 -44l1 -6l16 -14q1 -19 0.5 -34.5t-3.5 -27t-6 -14.5q-4 -2 -12 -5.5t-22 -8.5t-22.5 -8.5t-26.5 -9.5q-29 -11 -44.5 -16.5t-25.5 -10.5q-60 55 -94 130.5t-34 159.5q0 106 52 196t141 142t193.5 52t193.5 -52t140.5 -142
t51.5 -196q0 -82 -31.5 -155t-87.5 -127z" />
    <glyph glyph-name="uniE61E" unicode="&#xe61e;" 
d="M936 464q-3 3 -7 4t-8 0.5t-7.5 -2.5t-6.5 -5l-36 -45q0 9 -1 17.5t-2.5 17.5t-3.5 17q-22 107 -92.5 186t-171 112.5t-206 11.5t-184.5 -93t-112.5 -172t-11.5 -207.5t93 -186t171.5 -113t205.5 -11.5q114 24 198 109h1q0 1 0.5 2t1.5 1q1 2 1.5 4.5t0.5 4.5q0 5 -2 9
t-6 6t-9 2q-8 0 -13 -5q-76 -77 -179 -98q-96 -20 -187 10.5t-155 102t-84 168t10.5 188t101.5 156t167 84.5t186.5 -10.5t154.5 -102.5t84 -168q5 -22 7 -45l-44 35q-4 4 -9.5 4.5t-10.5 -1.5t-9 -6.5t-4.5 -10t1.5 -10.5t6 -9l80 -64q4 -3 8 -4t8 -1t8 2t6 6l65 80v1
q2 2 3 5.5t1 6.5t-0.5 6t-2.5 6t-5 5zM464 165q0 -7 5 -12.5t12.5 -5.5t13 5.5t5.5 12.5v108h109q5 0 9 2.5t6.5 6.5t2.5 9t-2.5 9.5t-6.5 7t-9 2.5h-109v56h109v0q4 0 7 1.5t5.5 3.5t4 5.5t1.5 7.5q0 7 -5 12.5t-13 5.5h-109v33l108 106v1q6 5 6.5 12.5t-4.5 13t-12.5 6
t-13.5 -4.5l-102 -101l-107 106q-2 2 -5.5 3t-7 1t-7 -1.5t-5.5 -4.5q-5 -6 -4.5 -13.5t5.5 -12.5l113 -110v-34h-110q-3 0 -6.5 -1.5t-6 -4t-4 -6t-1.5 -6.5q0 -8 5.5 -13t12.5 -5h110v-56h-110v-1q-7 0 -12.5 -5t-5.5 -12.5t5.5 -13t12.5 -5.5h110v-108v0z" />
    <glyph glyph-name="uniE61F" unicode="&#xe61f;" 
d="M395 382l323 313q10 9 13 21t0 24t-13 21q-14 14 -34 14t-35 -14l-357 -345q-15 -14 -15 -33.5t15 -33.5l357 -346q15 -13 35 -13t34 13q10 9 13 21.5t0 24.5t-13 21z" />
    <glyph glyph-name="uniE620" unicode="&#xe620;" 
d="M227 482q-39 0 -66.5 -27.5t-27.5 -66.5t27.5 -67t66.5 -28q26 0 47.5 13t34.5 34.5t13 47.5q0 15 -5 29.5t-13.5 26t-20.5 20.5t-26 13.5t-30 4.5zM511 482q-39 0 -67 -27.5t-28 -66.5t28 -67t67 -28q26 0 47.5 13t34 34.5t12.5 47.5q0 19 -7.5 36.5t-20 30t-30 20
t-36.5 7.5zM795 482q-39 0 -67 -27.5t-28 -66.5t28 -67t67 -28q25 0 47 13t34.5 34.5t12.5 47.5q0 39 -27.5 66.5t-66.5 27.5z" />
    <glyph glyph-name="uniE621" unicode="&#xe621;" 
d="M933 5l-146 157q92 111 92 255q0 109 -53.5 201t-146 145.5t-201 53.5t-200.5 -53.5t-145.5 -145.5t-53.5 -200.5t53.5 -201t145.5 -146t201 -53.5q87 0 165 36q12 5 16.5 17t-1 23.5t-17.5 16t-23 -0.5q-67 -30 -140 -30q-92 0 -170 45.5t-123.5 123.5t-45.5 169.5
t45.5 169.5t123.5 123.5t169.5 45.5t169.5 -45.5t123.5 -123.5t45.5 -170q0 -136 -94 -234q-9 -9 -8.5 -22t9.5 -22l1 -1l2 -1l1 -1l1 -2l159 -171q5 -4 11 -6.5t12 -2.5t11 2t10 6q9 9 9.5 21.5t-8.5 21.5z" />
    <glyph glyph-name="uniE622" unicode="&#xe622;" 
d="M935 468q-7 6 -16.5 7.5t-18 -2t-14.5 -10.5l-13 -16q-1 8 -3 17q-29 140 -140 231t-252 91q-42 0 -83 -9q-106 -22 -185.5 -94t-113.5 -174t-11 -209q29 -140 139.5 -231t252.5 -91q20 0 41 2.5t41 6.5q115 24 198 108l2 1q4 4 3 4l2 2q2 4 3 8t1 8q0 14 -9 23t-22 9
q-6 0 -12 -3l-2 2l-9 -9q-35 -35 -77.5 -58t-89.5 -33q-35 -7 -69 -7q-118 0 -211 76t-117 192q-28 137 48 254q71 110 198 143q7 2 14 3q34 7 69 7q118 0 210.5 -76t117.5 -193q0 -4 1 -6l-14 11q-11 9 -25.5 7t-23.5 -12q-6 -8 -7.5 -17t2 -18t10.5 -15l78 -63h1l3 -3h1
q10 -6 21 -4q15 1 24 13l63 78q9 12 7 26t-13 23z" />
    <glyph glyph-name="uniE623" unicode="&#xe623;" 
d="M787 805l-274 -264v0h-1l-274 264q-32 31 -68 12q-31 -17 -28 -50q2 -20 19 -36l256 -248h-159q-22 0 -37.5 -10.5t-19 -26t0 -31.5t19 -26.5t37.5 -10.5h200v-75h-200q-28 0 -43.5 -16.5t-15.5 -36.5t15.5 -36.5t43.5 -16.5h200v-195q0 -26 16 -41t39 -15v0v0
q22 0 38 15t16 41v195h200q28 0 44 16.5t16 36.5t-16 36.5t-44 16.5h-200v75h200q23 0 38 10.5t18.5 26.5t0 31.5t-18.5 26t-38 10.5h-159l257 247q15 16 18 34t-6 31.5t-23 22t-32.5 5.5t-34.5 -18z" />
    <glyph glyph-name="uniE624" unicode="&#xe624;" 
d="M946 489q-6 18 -24 21l-263 40l-118 252q-8 18 -28 18t-28 -18l-119 -251l-264 -40q-19 -3 -24 -21q-2 -5 -2 -11t2.5 -11t6.5 -9l191 -197l-46 -277q-3 -19 13 -30.5t33 -1.5l235 129l235 -130q4 -2 8 -3t7 -1q5 0 9.5 1.5t8.5 4.5q16 11 13 30l-45 277l192 196
q13 14 7 32z" />
    <glyph glyph-name="uniE625" unicode="&#xe625;" 
d="M946 489q-6 18 -24 21l-263 40l-118 252q-8 18 -28 18t-28 -18l-119 -251l-264 -40q-19 -3 -24 -21q-2 -5 -2 -11t2.5 -11t6.5 -9l191 -197l-46 -277q-3 -19 13 -30.5t33 -1.5l235 129l235 -130q4 -2 8 -3t7 -1q5 0 9.5 1.5t8.5 4.5q16 11 13 30l-45 277l192 196
q13 14 7 32zM692 294q-11 -12 -8 -27l37 -230l-194 108q-7 4 -15 4t-15 -4l-195 -107l38 230q1 3 0.5 6.5t-1.5 7t-3 7t-4 5.5l-161 166l220 32q3 0 6 1q13 5 18 16l98 207l96 -207q1 -3 3 -5.5t4.5 -4.5t5 -3.5t5.5 -2.5l6 -2l219 -34z" />
    <glyph glyph-name="uniE626" unicode="&#xe626;" 
d="M820.5 691.5q-62.5 62.5 -144 95.5t-164.5 33t-164.5 -33t-143.5 -95q-84 -84 -113.5 -196t0 -224.5t113.5 -195.5q36 -36 78.5 -62.5t88 -42t93.5 -21t96 0t93.5 21t88 42t78.5 62.5q63 62 95.5 143.5t32.5 164t-32.5 164t-95 144zM775.5 119.5q-71.5 -71.5 -167.5 -97
t-192 0t-167.5 97t-97 168t0 192.5t97 167.5t167.5 97t192 0t167.5 -97t97 -167.5t0 -192.5t-97 -168zM768 540q-4 4 -9.5 6t-11.5 2t-11.5 -2.5t-9.5 -6.5l-271 -288l-144 142q-9 9 -22 8.5t-21 -8.5q-9 -9 -9 -22q0 -6 2.5 -11.5t6.5 -9.5l166 -164l1 -1h1q1 -1 2.5 -2
t2.5 -2l4 -2q3 -1 5.5 -1.5t5.5 -0.5t6 0.5t6 2.5q1 0 3 1l1 1l5 4l293 311q8 9 8 21.5t-10 21.5z" />
    <glyph glyph-name="uniE627" unicode="&#xe627;" 
d="M600 373h8v1q17 6 17 24q0 11 -7 18.5t-18 7.5h-98v21l103 101l4 5q3 6 4 12q0 5 -1.5 10t-5.5 8q-6 8 -17 8.5t-19 -6.5l-93 -92l-99 97q-2 2 -5 3.5t-6.5 2t-6.5 0.5t-6 -1t-6 -2.5t-5 -4.5q-13 -14 -3 -30v-1l111 -109v-22h-98h-8v-2q-17 -5 -17 -24q0 -5 2 -10
t6 -8.5t9 -5.5v-1h106v-39h-106v-1q-17 -6 -17 -24.5t17 -24.5v-1h106v-97v-7h2q2 -8 8.5 -13t15 -5t15 5t9.5 13h1v104h98h8v2q17 5 17 24q0 10 -7 17.5t-18 7.5h-98v39h98zM955 421q-5 5 -12 7t-14 0.5t-12 -7.5l-25 -24q-3 110 -59.5 202.5t-151 146.5t-204.5 54
q-113 0 -209 -55.5t-151.5 -151.5t-55.5 -209q0 -85 33 -162t88.5 -132.5t132.5 -88.5t162 -33q93 0 175.5 39.5t141.5 109.5l8 8v1q1 0 1 1q3 6 3 12q0 8 -4 14.5t-10.5 10t-14.5 3.5q-5 0 -9.5 -1.5t-8 -4.5t-5.5 -7q-51 -61 -123 -95.5t-154 -34.5q-98 0 -181 48
t-131.5 131t-48.5 181t48.5 181t131.5 131t181 48q49 0 95.5 -13t86 -36t73 -56.5t56.5 -73t36 -86t13 -95.5v-2v-2l-41 41q-4 4 -9 6t-10 2t-10.5 -2t-9.5 -6q-5 -5 -7 -12t0 -14t7 -12l75 -75q8 -8 20 -8q5 -1 6 -1q12 0 19 7l78 77q8 8 8 19t-8 19z" />
    <glyph glyph-name="uniE628" unicode="&#xe628;" 
d="M915 689q-24 26 -59 26h-608l-2 14q-4 32 -29.5 54.5t-57.5 22.5h-39q-3 0 -5.5 -0.5t-5 -1.5t-5 -2.5t-4.5 -3.5t-3.5 -4.5t-2.5 -5t-1.5 -5.5t-0.5 -6q0 -12 8 -20.5t20 -8.5h39q11 0 19.5 -8t10.5 -20l29 -168l51 -362q3 -21 15 -38.5t31 -28t40 -10.5h491q8 0 14.5 4
t10.5 10.5t4 14.5q0 12 -8.5 20.5t-20.5 8.5h-491q-7 0 -13 3.5t-10.5 10t-5.5 13.5l-4 30l481 36q16 0 31 6t26.5 16t19 24t9.5 30l47 273q6 45 -21 76zM363 80q-25 0 -42 -17.5t-17 -41.5t17 -41.5t41.5 -17.5t42 17.5t17.5 41.5q0 37 -33 53q-13 6 -26 6zM786 80
q-24 0 -41.5 -17.5t-17.5 -41.5t17.5 -41.5t42 -17.5t41.5 17.5t17 41.5q0 10 -3 19t-8.5 16t-12.5 12.5t-16 8.5t-19 3z" />
    <glyph glyph-name="uniE629" unicode="&#xe629;" 
d="M846 171h-491q-10 0 -18.5 8t-10.5 19l-51 363l-29 168q-4 32 -29.5 54.5t-57.5 22.5h-39q-3 0 -5.5 -0.5t-5 -1.5t-5 -2.5t-4.5 -3.5t-3.5 -4.5t-2.5 -5t-1.5 -5.5t-0.5 -6q0 -12 8 -20.5t20 -8.5h39q5 0 10 -2t9 -6t7 -9t4 -11l29 -168l51 -362q3 -21 15 -38.5t31 -28
t40 -10.5h491q8 0 14.5 4t10.5 10.5t4 14.5t-4 14.5t-10.5 10.5t-14.5 4zM915 689q-24 26 -59 26h-524q-12 0 -20.5 -8.5t-8.5 -19.5q0 -8 4 -15t10.5 -10.5t14.5 -3.5h524h4l2 -2q2 0 4 -1l2 -2q2 -1 3 -2q11 -12 9 -30l-48 -272q0 -4 -1.5 -6.5t-3 -5.5t-3.5 -5t-5 -4
t-5.5 -3.5t-6 -2t-6.5 -0.5l-410 -30q-12 -1 -20 -10t-7 -21q1 -11 9.5 -19t19.5 -8h2l408 30q32 0 57 22t29 54l47 273q6 45 -21 76zM362.5 -38q24.5 0 42 17.5t17.5 41.5q0 16 -8 29.5t-21.5 21.5t-29.5 8t-29.5 -8t-21.5 -21.5t-8 -29.5q0 -24 17 -41.5t41.5 -17.5z
M786.5 -38q24.5 0 41.5 17.5t17 41.5t-17 41.5t-41.5 17.5t-42 -17.5t-17.5 -41.5t17.5 -41.5t42 -17.5z" />
    <glyph glyph-name="uniE62A" unicode="&#xe62a;" 
d="M939 412l-381 376q-2 2 -5 4.5t-7 5.5q-7 5 -15 7.5t-17 2.5q-17 0 -32 -10q-8 -5 -12 -11l-380 -375q-11 -10 -11 -24q0 -7 3 -13.5t8 -10.5q19 -19 46 7l25 26l42 40v-390q0 -36 26 -61.5t63 -25.5h149v248q0 15 10 25t25 10h77q15 0 25 -10t10 -25v-248h149
q24 0 44.5 11.5t32.5 32t12 43.5v388l67 -67q18 -11 30 -11q5 0 9 1.5t7 5.5q10 9 10 23.5t-10 24.5z" />
    <glyph glyph-name="uniE62B" unicode="&#xe62b;" 
d="M939 412l-381 376q-2 2 -5 4.5t-7 5.5q-7 5 -15 7.5t-17 2.5q-17 0 -32 -10q-8 -5 -12 -11l-380 -375q-11 -10 -11 -24q0 -7 3 -13.5t8 -10.5q19 -19 46 7l25 26l354 343l3 -2l375 -370l11 -6q5 -2 10 -3.5t9 -1.5q9 0 16 7q10 9 10 23.5t-10 24.5zM797 431q-6 0 -11 -2
t-9 -6t-6.5 -9t-2.5 -11v-351q0 -8 -2.5 -14t-7.5 -11t-11.5 -7.5t-13.5 -2.5h-88v196q0 36 -25.5 61.5t-62.5 25.5h-85q-37 0 -63 -25.5t-26 -61.5v-196h-87q-15 0 -25 10t-10 25v351q0 6 -2.5 11t-6.5 9t-9 6t-11 2q-12 0 -20.5 -8t-8.5 -20v-356q0 -36 26 -61.5t63 -25.5
h149v248q0 15 10 25t25 10h77q15 0 25 -10t10 -25v-248h149q24 0 44.5 11.5t32.5 32t12 43.5v356q-1 7 -4.5 14t-10 10.5t-14.5 3.5z" />
    <glyph glyph-name="uniE62C" unicode="&#xe62c;" 
d="M900 -2q-6 81 -44.5 153.5t-102.5 122.5l-5 4q-8 4 -16 4q-32 0 -32 -25q0 -14 12 -24l4 -3q109 -78 121 -233v-1v-2q0 -7 2.5 -12.5t6.5 -10t10 -7t12 -2.5q13 0 22 9t9 21h1v6zM799 524q0 117 -84.5 200t-202.5 83q-78 0 -144 -38t-104.5 -103t-38.5 -142
q0 -31 7 -61.5t20 -58t32.5 -52t43.5 -44.5q-58 -31 -102.5 -79.5t-70.5 -108.5t-31 -126v-5v-1v-1q0 -11 8 -18.5t19 -7.5t18.5 7.5t7.5 18.5v1h1v6q7 93 62 169t140 110q69 -32 132 -32q65 0 124 28l29 17l24 16q52 40 81 98.5t29 123.5z" />
    <glyph glyph-name="uniE62D" unicode="&#xe62d;" 
d="M900 -2q-6 81 -44.5 153.5t-102.5 122.5l-5 4q-8 4 -16 4q-32 0 -32 -25q0 -14 12 -24l4 -3q109 -78 121 -233v-1v-2q0 -7 2.5 -12.5t6.5 -10t10 -7t12 -2.5q13 0 22 9t9 21h1v6zM799 524q0 117 -84.5 200t-202.5 83q-78 0 -144 -38t-104.5 -103t-38.5 -142
q0 -31 7 -61.5t20 -58t32.5 -52t43.5 -44.5q-58 -31 -102.5 -79.5t-70.5 -108.5t-31 -126v-5v-1v-1q0 -11 8 -18.5t19 -7.5t18.5 7.5t7.5 18.5v1h1v6q7 93 62 169t140 110q69 -32 132 -32q65 0 124 28l29 17l24 16q52 40 81 98.5t29 123.5zM512 298q-95 0 -162 66.5t-67 160
t67 159.5t162 66t162 -66t67 -159.5t-67 -160t-162 -66.5z" />
    <glyph glyph-name="uniE62E" unicode="&#xe62e;" 
d="M836 638h-28q11 19 15.5 36t3.5 34q-4 39 -42 64q-20 13 -44.5 16t-52.5 -4q-45 -11 -94 -47t-84 -83q-10 14 -21.5 26.5t-24 24.5t-26 22.5t-27 19.5t-27 16t-27 12.5t-26.5 8.5q-18 5 -35.5 5t-33 -4t-28.5 -13q-38 -25 -41 -64q-3 -33 18 -70h-28q-32 0 -55 -23
t-23 -55v-100q0 -26 15 -46.5t40 -28.5q-5 -13 -5 -26v-302q0 -21 10.5 -39t28.5 -28.5t39 -10.5h553q32 0 55 23t23 55v302q0 4 -0.5 8.5t-1.5 9t-2 8.5q24 8 39 28.5t15 46.5v100q0 8 -1.5 16t-4.5 14.5t-7 13t-9.5 12t-11.5 9.5t-13 7t-15 4.5t-16 1.5zM786 34h-249v347
h249q6 0 11.5 -3t8.5 -8t3 -11v-302q0 -9 -7 -16t-16 -7zM568 638q20 23 43 42t46.5 32t44.5 18q8 2 15.5 3t14 0.5t12.5 -2.5t10 -5q16 -11 17 -23q2 -15 -9.5 -33.5t-23.5 -31.5h-170zM859 560v-100q0 -10 -6.5 -16.5t-16.5 -6.5h-299v146h299q6 0 11.5 -3t8.5 -8.5
t3 -11.5zM482 381v-347h-249q-9 0 -15.5 7t-6.5 16v302q0 9 6.5 15.5t15.5 6.5h249zM248 703q0 3 1.5 6t5 8t10.5 9q19 13 53 4q15 -4 32.5 -12.5t34.5 -20t34 -27t32 -32.5h-170q-12 12 -23 31t-10 34zM160 560q0 9 7 16t16 7h299v-146h-299q-9 0 -16 6.5t-7 16.5v100z" />
    <glyph glyph-name="uniE62F" unicode="&#xe62f;" 
d="M873 140zM401 353l-1 1h-1h-201q-33 0 -57 -23.5t-24 -56.5v-1v-190v-3q0 -2 1 -4q5 -29 27.5 -48t52.5 -19h201h2q11 1 21 4.5t18.5 9.5t15.5 14t11.5 18t6.5 20q1 4 1 8v190v1q0 20 -10 38t-27 29t-37 12zM425 269v-175q0 -15 -10 -25t-25 -10h-181h-1h-6
q-7 0 -13.5 2.5t-11.5 7.5t-7.5 11.5t-2.5 13.5v175q0 14 10 24.5t25 10.5h188q10 0 18 -5t12.5 -13t4.5 -17zM893 705q-1 31 -22.5 54t-52.5 25q-1 1 -2 1h-180q-33 0 -57 -24t-24 -57v-190q0 -2 0.5 -4t0.5 -3q2 -12 7 -22t12.5 -18.5t17 -14.5t21 -9t22.5 -3h180h2
q14 1 26.5 6.5t22 14t16 20.5t8.5 25q2 4 2 8v190v1zM843 700v-175q0 -15 -10.5 -25.5t-25.5 -10.5h-167q-14 0 -24.5 10.5t-10.5 25.5v175q0 14 10.5 24.5t24.5 10.5h167q15 0 25.5 -10.5t10.5 -24.5zM818 353v1h-2h-180q-33 0 -57 -23.5t-24 -57.5v-190l1 -7q5 -29 28 -48
t52 -19h180h2q28 2 48.5 20.5t24.5 45.5q2 4 2 8v190v1q-1 31 -22.5 54t-52.5 25zM843 269v-175q0 -10 -5 -18t-13 -12.5t-18 -4.5h-167q-7 0 -13.5 2.5t-11 7.5t-7.5 11.5t-3 13.5v175q0 14 10.5 24.5t24.5 10.5h167q15 0 25.5 -10.5t10.5 -24.5zM401 784l-2 1h-201
q-22 0 -40.5 -11t-29.5 -29.5t-11 -39.5v-1v-190l1 -7q2 -14 9.5 -27t18 -21.5t24 -13.5t28.5 -5h201h2q18 1 33.5 10t26 23.5t13.5 32.5q1 4 1 8v190v1q0 31 -21.5 54t-52.5 25zM425 700v-175q0 -8 -2.5 -14.5t-7.5 -11t-11.5 -7.5t-13.5 -3h-188q-15 0 -25 10.5t-10 25.5
v175q0 14 10 24.5t25 10.5h188q15 0 25 -10.5t10 -24.5z" />
    <glyph glyph-name="uniE630" unicode="&#xe630;" 
d="M873 140zM928 384q0 84 -33 161t-89 133t-133 89t-161 33q-113 0 -208.5 -56t-151.5 -151.5t-56 -208.5t56 -208.5t151.5 -151.5t208.5 -56q84 0 161 33t133 89t89 133t33 161zM512 28q-97 0 -179 47.5t-129.5 129.5t-47.5 179t47.5 179t129.5 129.5t179 47.5
q48 0 94.5 -12.5t85.5 -35.5t72 -56t56 -72t35.5 -85.5t12.5 -94.5q0 -143 -99 -246q-98 -102 -238 -110h-19zM682 254l-128 129l128 127q9 8 9 20.5t-8.5 21.5t-21 9t-21.5 -9l-128 -127l-127 127q-8 9 -20.5 9t-21 -9t-9 -21t8.5 -21l127 -127l-128 -126q-6 -6 -8 -13.5
t0 -15t8 -13.5q3 -3 6.5 -5t7 -3t7.5 -1q12 0 21 9l128 126l128 -129q9 -9 21.5 -9t21 8.5t8.5 21t-9 21.5z" />
    <glyph glyph-name="uniE631" unicode="&#xe631;" 
d="M873 140zM810 682q-81 81 -189.5 109.5t-217 0t-189.5 -109.5t-109.5 -189.5t0 -217t109.5 -189.5q61 -60 139.5 -91.5t158.5 -31.5t158.5 31.5t139.5 91.5q48 49 78.5 109.5t39.5 124.5t0 128t-39.5 124.5t-78.5 109.5zM767 129q-69 -69 -162 -94t-186 0t-162 94
t-94 162t0 186t94 162t162 94t186 0t162 -94t94 -162t0 -186t-94 -162zM602 557q-12 0 -23.5 -3t-23 -9t-22.5 -14.5t-21 -20.5q-20 23 -43 35t-47 12q-38 0 -69 -19.5t-49.5 -53.5t-18.5 -74q0 -6 1 -13t2.5 -14t4 -14.5t5.5 -14.5t6.5 -14t7.5 -13.5t8.5 -12.5t9.5 -11.5
t10 -10.5q15 -19 50 -51.5t72 -61t50 -28.5q19 0 81.5 53.5t89.5 86.5q24 22 40 56t16 63q0 40 -18.5 74t-49.5 53.5t-69 19.5zM645 333l-4 -4l-3 -3q-17 -22 -58.5 -59t-67.5 -54q-16 11 -42.5 33t-50.5 45t-35 37l-3 3l-3 3q-10 9 -18.5 23.5t-13.5 28.5t-5 24
q0 37 23.5 64t57.5 27q23 0 47 -28l43 -49l43 49q24 28 47 28q17 0 31.5 -7.5t25.5 -19.5t17.5 -29t6.5 -35q0 -16 -11 -39.5t-27 -37.5z" />
    <glyph glyph-name="uniE632" unicode="&#xe632;" 
d="M873 140zM922 420q-5 6 -12 7.5t-14.5 0t-12.5 -6.5l-19 -18q-4 101 -56.5 185.5t-139 133t-189.5 48.5q-52 0 -102 -14t-92.5 -39t-78 -60.5t-60.5 -78t-38.5 -92.5t-13.5 -102q0 -105 51.5 -193.5t140.5 -140.5t193 -52q85 0 162 36t132 101q5 4 8 9l1 1l2 3l-1 1
q1 2 1.5 4.5t0.5 4.5q0 12 -8.5 21t-20.5 9q-7 0 -13.5 -4t-10.5 -10q-47 -57 -113 -88t-140 -31q-89 0 -164.5 44t-119.5 120t-44 165q0 67 26 127.5t70 105t105 70.5t127 26q89 0 164.5 -43.5t119.5 -118.5t45 -163l-33 32q-8 8 -19.5 8t-19.5 -7q-4 -5 -6 -10t-2 -10.5
t2 -10.5t6 -9l69 -69q8 -9 20 -9h1q3 -1 5 -1h4l4 2q2 0 4 1t4 2.5t4 2.5l71 71q8 8 8 19.5t-8 19.5z" />
    <glyph glyph-name="uniE633" unicode="&#xe633;" 
d="M908 205l-13 16q-14 15 -35 33q-32 28 -67 51l-57 34q-7 4 -14.5 5.5t-14.5 1.5h-6l-6 -2h-6q-3 -1 -5 -2q-27 -10 -54 -59q-4 -7 -9 -18l-1 -2q-2 -4 -3 -5.5t-3 -5t-3 -6.5t-3 -5q-8 -15 -21 -15l-8 2q-78 45 -130 95q-76 73 -100 129q-1 2 -1 5t1.5 7t5.5 6q9 4 23 10
l2 1q6 3 9.5 4.5t9 4t10.5 5.5t9 5v1h1q7 4 18 12q1 0 5 3l7 7q14 13 18 31t-3 34l-3 9q-3 13 -30 59q-15 26 -35 53q-9 12 -19 22.5t-17 16.5t-14 11t-9.5 6.5t-3.5 1.5q-7 4 -13 6q-10 5 -20.5 6t-21 -0.5t-20.5 -5.5q-29 -11 -67 -43l-4 -3q-43 -36 -65 -80t-16 -84
q8 -63 72.5 -169.5t150.5 -189.5q43 -41 96.5 -80t103.5 -66.5t95 -45.5t76 -22q3 -1 6.5 -1t6.5 -0.5t6 -0.5q67 0 140 68q35 33 51 68q9 19 9.5 39.5t-11.5 41.5zM293 428q30 -68 114 -149q57 -55 142 -104q9 -5 18.5 -7.5t19.5 -2.5q23 0 43.5 13.5t30.5 32.5q5 9 14 27
l2 4q5 11 6 11q12 22 22 32h4l51 -31h1q14 -11 31 -23.5t28 -22.5q15 -12 28 -25q1 -1 1 -2l10 -11q0 -3 -1 -9t-3 -12q-6 -12 -16.5 -25.5t-20.5 -22.5q-9 -8 -16.5 -14.5t-15 -12t-14.5 -9.5t-13.5 -7t-13 -5t-13 -3t-12.5 -1h-6q-3 0 -6 1q-24 3 -63.5 19t-85 41
t-96.5 61.5t-92 76.5q-80 77 -139 175t-66 148q-2 12 1.5 26t11.5 28t20 28t27 27l4 4q30 25 51 33q3 1 5.5 1.5t3.5 0.5h3q1 0 3 -1q1 -1 3.5 -2t4.5 -2l2 -1l2 -1q1 -1 5.5 -4.5t9.5 -7.5t11.5 -11.5t12.5 -15.5q9 -11 17.5 -24t13.5 -23q13 -22 26 -49v-1l3 -8v-1l-1 -1
l-1 -2q-2 -1 -2 -2q-7 -4 -13 -8q-6 -3 -13 -7q-3 -2 -6.5 -3.5t-6 -3t-7.5 -3.5q-17 -6 -29 -13q-20 -9 -30.5 -27.5t-10 -36.5t5.5 -32z" />
    <glyph glyph-name="uniE634" unicode="&#xe634;" 
d="M308 604q-11 0 -19 -7.5t-8 -18.5v-400q0 -28 15 -53t39.5 -40t52.5 -15h275h7v2q16 7 16 24t-16 24v3h-294q-6 0 -12 3.5t-11.5 9t-9.5 13t-6.5 15t-2.5 14.5v396q1 2 1 4q0 11 -8 18.5t-19 7.5zM708 69q-5 0 -9.5 -2t-8 -5.5t-5.5 -8.5l-1 -2q-8 -16 -15.5 -23
t-13.5 -6.5t-13 0.5h-11h-367q-11 0 -23.5 9t-21.5 22.5t-9 23.5v480q0 6 2.5 13t7.5 13.5t11 12t13 9.5t13 5l6 2q18 6 18 25t-17 25v4l-8 -2h-1q-1 0 -2 -0.5t-2 -0.5q-39 -4 -66.5 -35t-27.5 -71v-480q0 -27 15 -52.5t39.5 -40.5t52.5 -15h372q76 0 93 63q2 3 2.5 6
t0.5 6q0 10 -7 17.5t-17 7.5zM462 395h224q13 0 22.5 9.5t9.5 22.5q0 6 -2.5 12t-7 10t-10.5 6.5t-12 2.5h-224q-8 0 -15.5 -4t-12 -11.5t-4.5 -16t4.5 -15.5t12 -11.5t15.5 -4.5zM692 784l-3 3h-3q-3 0 -291 1h-5h-2q-26 0 -49 -12.5t-38 -33t-18 -46.5q-1 -2 -1 -4v-7h1
q6 -19 26 -19q5 0 9.5 2t8 5t6 7.5t2.5 9.5h1q4 17 15.5 30.5t24.5 13.5h264v-52v-38v-15q0 -21 7 -39t19.5 -30.5t30 -19t38.5 -6.5h79v-356q0 -12 -3.5 -22.5t-11.5 -17.5q-7 -7 -16.5 -11t-19.5 -4h-8v-2q-8 -3 -13 -9.5t-5 -15.5q0 -19 19 -25l1 -1h7h3q26 2 49 17.5
t37 39.5t14 51v403zM794 586h-59q-14 0 -28 24.5t-14 43.5v54zM462 277h224q13 0 22.5 9.5t9.5 21.5q0 9 -4.5 16t-11.5 11.5t-16 4.5h-224q-3 0 -7 -1t-7 -2.5t-6 -3.5t-5 -5t-3.5 -6t-2.5 -6.5t-1 -7.5q0 -12 9.5 -21.5t22.5 -9.5z" />
    <glyph glyph-name="uniE635" unicode="&#xe635;" 
d="M512 645q-55 0 -94.5 -38.5t-39.5 -92.5q0 -27 10.5 -51t28.5 -42t43 -28t52 -10q55 0 94.5 38.5t39.5 92.5q0 35 -18 65.5t-49 48t-67 17.5zM512 441q-31 0 -52.5 21.5t-21.5 51.5t21.5 51.5t52.5 21.5t52.5 -21.5t21.5 -51.5q0 -43 -38 -64q-17 -9 -36 -9zM825 494
q0 127 -92 217.5t-221 90.5q-36 0 -71.5 -8.5t-66 -23.5t-58 -36t-48.5 -47.5t-36.5 -57t-24 -65t-8.5 -70.5q0 -46 30 -117.5t78.5 -148.5t87.5 -133.5t80 -109.5q14 -19 37 -19q7 0 14 2.5t13 6.5t10 10q31 40 61.5 82t71 105t70.5 117.5t51.5 111t21.5 93.5zM517 31
l-5 -6l-5 6q-58 78 -105.5 149.5t-80 131t-50.5 106.5t-18 76q0 52 20.5 99t55.5 81t82.5 54t100 20t100.5 -20t82.5 -54t55.5 -81t21 -99q0 -58 -68.5 -182.5t-185.5 -280.5z" />
    <glyph glyph-name="uniE636" unicode="&#xe636;" 
d="M763 277h-218v118l227 1q10 3 16 11.5t6 18.5q0 13 -9 22.5t-22 9.5h-218v71l220 218q1 1 1 3l2 2v4v4q1 4 0 8t-3 7.5t-5 7.5q-7 8 -21.5 9t-23.5 -7l-201 -199l-212 209q-3 3 -7.5 4.5t-9.5 1.5t-10.5 -1t-9.5 -3t-7 -5q-16 -18 -3 -38l3 -5l224 -218v-73l-227 -2
q-22 -7 -22 -30t22 -30l5 -1h222v-118l-227 -2q-10 -3 -16 -11.5t-6 -18.5q0 -23 22 -30l5 -2h222v-221l1 -3q8 -22 30.5 -22t29.5 22l2 5v219l227 2q22 7 22 30q0 7 -2.5 12.5t-6.5 10t-10 7t-12 2.5z" />
    <glyph glyph-name="uniE637" unicode="&#xe637;" 
d="M697 760q-32 0 -62 -12.5t-53.5 -34t-39.5 -40t-29 -38.5q-13 20 -28.5 38.5t-39 40t-53.5 34t-62 12.5q-98 0 -167.5 -76.5t-69.5 -184.5q0 -51 30 -114t72 -101q54 -70 176 -173t143 -103q22 0 141.5 101.5t175.5 173.5q28 25 51.5 63t37 79t13.5 74q0 108 -69 184.5
t-167 76.5z" />
    <glyph glyph-name="uniE638" unicode="&#xe638;" 
d="M697 760q-32 0 -62 -12.5t-53.5 -34t-39.5 -40t-29 -38.5q-13 20 -28.5 38.5t-39 40t-53.5 34t-62 12.5q-98 0 -167.5 -76.5t-69.5 -184.5q0 -51 30 -114t72 -101q54 -70 176 -173t143 -103q22 0 141.5 101.5t175.5 173.5q28 25 51.5 63t37 79t13.5 74q0 108 -69 184.5
t-167 76.5zM878 499q0 -27 -11.5 -60t-31.5 -64.5t-43 -51.5q-1 -2 -3 -4q-46 -60 -127 -130.5t-148 -118.5q-193 141 -276 250q-2 1 -4 3q-34 31 -59.5 83t-25.5 93q0 85 53 145.5t128 60.5q30 0 61.5 -21t55.5 -51t41 -67q7 -14 25 -14t26 14q17 37 41 67t55.5 51t61.5 21
t57.5 -10.5t49.5 -29.5t38.5 -44.5t26 -57t9.5 -64.5z" />
    <glyph glyph-name="uniE639" unicode="&#xe639;" 
d="M537 614q-7 10 -18 14q-5 2 -12 2h-1h-1h-1q-3 0 -6 -0.5t-5 -1.5q-6 -2 -10.5 -5.5t-7.5 -7.5l-254 -255q-9 -9 -9 -23q0 -7 3 -14t8.5 -12t12 -8t13.5 -3q13 0 23 9l1 1l1 2l196 195v-470v-2v-2q0 -6 3 -12t7.5 -10t11 -6.5t14.5 -2.5q9 0 17.5 4t13.5 11.5t5 15.5v474
l195 -195q1 0 1.5 -0.5t0.5 -1.5l1 -1q10 -9 23 -9q7 0 13.5 3t12.5 8q10 10 10.5 24.5t-8.5 24.5zM888 766h-764q-13 0 -22.5 -9.5t-9.5 -22.5q0 -9 4.5 -16t12 -11.5t15.5 -4.5h764q13 0 22.5 9.5t9.5 22.5t-9.5 22.5t-22.5 9.5z" />
    <glyph glyph-name="uniE63A" unicode="&#xe63a;" 
d="M379 135v331q0 28 -29 28q-4 0 -8.5 -1.5t-8 -4t-6 -6t-4 -7.5t-1.5 -9v-331q0 -11 8.5 -19.5t20 -8.5t20 8.5t8.5 19.5zM534 87v471q0 12 -8 20.5t-20 8.5q-6 0 -11 -2.5t-9 -6.5t-6 -9t-2 -11v-471q0 -12 8 -20.5t20 -8.5q8 0 14.5 4t10 10.5t3.5 14.5zM870 548v2
q0 13 -8 21q-7 7 -18 7q-6 0 -11.5 -2t-9.5 -6t-6.5 -9t-2.5 -11v-2v-2v-2v-5v-7v-19v-11v-19v-39v-39v-74v-9v-6v-15q-1 -198 -1 -240q0 -15 -3.5 -24.5t-9.5 -12.5t-21 -2h-3h-9h-10h-3h-4h-4h-30h-11h-83h-81h-9h-17h-9q-103 -1 -227 0h-32q-30 0 -37 18q-1 2 -2 4.5
t-1.5 5t-0.5 4.5v5v3v487q0 8 -3 14.5t-9 10t-14 3.5q-5 0 -9.5 -1.5t-8 -4t-6.5 -6t-4.5 -8t-1.5 -8.5v-483v-2v-1q-1 -12 1 -24t7 -22q23 -52 89 -52h8h13h11h107h121h9h17h9h12h14h14h13h13h14h84h12h30h20h7h8q19 0 36 7q15 7 26.5 20t18 31t6.5 38v28v212v16v14v25v24
v25v78v29v8v12v8v5v3zM655 113q0 -11 8.5 -19.5t20.5 -8.5q8 0 14.5 4t10 10.5t3.5 13.5v193q0 11 -8 19.5t-20 8.5q-6 0 -11 -2t-9 -6t-6.5 -9.5t-2.5 -10.5v-193zM684 390q12 0 20 8.5t8 19.5v85q0 12 -8 20t-20 8t-20.5 -8t-8.5 -20v-85q0 -11 8.5 -19.5t20.5 -8.5z
M867 737h-244l-5 6l-2 2l-2 3q-1 2 -2 3t-2 3t-2 3l-2 2q-34 44 -96 44q-64 0 -99 -44q-3 -4 -14 -19l-1 -2l-1 -1l-244 -1q-12 0 -20 -8t-8 -20t8 -20.5t20 -8.5h11l238 1q23 0 40 22l1 2q1 1 2 3t2 3q3 5 6 8.5t4 5.5q5 5 9.5 9t10.5 7t15 5t20 2q34 0 51 -23q1 0 2 -2
t2.5 -3.5t3 -3.5t1.5 -3l2 -2q22 -30 51 -30h244q12 0 20 8.5t8 20t-8 20t-20 8.5z" />
    <glyph glyph-name="uniE63B" unicode="&#xe63b;" 
d="M903 101q-10 9 -23 9h-751q-8 0 -15.5 -4.5t-12 -12t-4.5 -15.5q0 -14 9.5 -23.5t22.5 -9.5h751q13 0 22.5 9.5t9.5 23.5q0 3 -0.5 6t-1.5 6t-3 5.5t-4 5.5zM880 435h-751q-13 0 -22.5 -9.5t-9.5 -23t9.5 -23t22.5 -9.5h751q9 0 16.5 4.5t11.5 12t4 15.5q0 7 -2.5 13
t-7 10.5t-10.5 7t-12 2.5zM903 742q-10 9 -23 9h-751q-8 0 -15.5 -4.5t-12 -12t-4.5 -15.5q0 -14 9.5 -23.5t22.5 -9.5h751q13 0 22.5 9.5t9.5 23.5q0 6 -2.5 12t-6.5 11z" />
    <glyph glyph-name="uniE63C" unicode="&#xe63c;" 
d="M765 804h-506q-22 0 -37 -15t-15 -37v-736q0 -22 15 -37t37 -15h506q22 0 37 15t15 37v736q0 22 -15 37t-37 15zM265 252v477q0 7 5 12t12 5h460q7 0 12 -5t5 -12v-477h-494zM759 194v-155q0 -7 -5 -12t-12 -5h-460q-4 0 -7 1t-5 3.5t-3.5 5.5t-1.5 7v155h494zM512 56
q22 0 37 15t15 36.5t-15 37t-36.5 15.5t-37 -15.5t-15.5 -37t15.5 -36.5t36.5 -15z" />
    <glyph glyph-name="uniE63D" unicode="&#xe63d;" 
d="M358 341l-1 -2l-41 -151q-1 -2 -1 -5t1 -5v-6q1 -2 2.5 -4t3.5 -4q8 -8 18 -8q4 0 7 1l150 41v0q3 0 5 2l400 400q18 18 18 45q0 32 -23 55l-38 38q-23 23 -54 23q-9 0 -17.5 -2t-15.5 -6t-13 -10l-400 -400l-1 -1v-1zM863 639l-40 -40l-64 66l39 39q3 3 7.5 3.5t9.5 -1
t8 -4.5l38 -38q3 -3 4.5 -6.5t1.5 -7.5q0 -7 -4 -11zM429 335l289 289l64 -66l-288 -288zM377 218l21 77l55 -56zM888 480q-5 0 -10.5 -2t-9 -5.5t-5.5 -9t-2 -10.5v-373q0 -10 -5 -18t-13 -13t-18 -5h-631q-14 0 -24.5 10.5t-10.5 25.5v608q0 5 1 9.5t3.5 8.5t5.5 7.5
t7 5.5t8.5 3.5t9.5 1.5h407q7 0 13.5 3.5t10 10t3.5 14t-3.5 14t-10 10t-13.5 3.5h-411q-36 0 -61 -25.5t-25 -60.5v-618q0 -35 25 -60.5t61 -25.5h639q24 0 44 11.5t31.5 31.5t11.5 43v378q0 5 -2.5 10.5t-6 9t-8.5 5.5t-11 2z" />
    <glyph glyph-name="uniE63E" unicode="&#xe63e;" 
d="M512 397q-51 0 -88.5 -35t-41.5 -85q-1 -2 -1 -4v-32q0 -5 4 -9.5t10 -4.5h31q6 0 10 4.5t4 9.5v9q-1 3 0 9v6q0 15 6 28t15.5 23t22.5 15.5t28 5.5q30 0 51 -21t21 -51q0 -24 -14 -43t-36 -26v45q0 6 -4 10t-10 4h-31q-6 0 -10 -4t-4 -10v-94q0 -6 4 -10t10 -4h31
q2 0 4 1q50 4 84.5 42t34.5 89q0 18 -5 35t-13 31.5t-20.5 26.5t-26.5 20.5t-31 13.5t-35 5zM807 560h-77v55q0 79 -54.5 135t-131.5 56h-36q-37 0 -71 -15t-59 -40t-40 -60t-16 -73v-1v-2v-6h1q2 -6 6 -11t10 -7.5t12 -2.5q10 0 18 6t10 15h1v6q3 56 40.5 94t88.5 38h34
q54 0 92 -40.5t38 -98.5v-48h-298h-158q-36 0 -62 -26.5t-26 -63.5v-418q0 -37 26 -63.5t62 -26.5h590q36 0 62 26.5t26 63.5v418q0 18 -7 35t-19 29t-28.5 19t-33.5 7zM839 465v-408q0 -16 -10.5 -27t-26.5 -11h-580q-16 0 -26.5 11t-10.5 27v408q0 11 5 19.5t13.5 13.5
t18.5 5h580q8 0 15 -3t11.5 -8t7.5 -12t3 -15z" />
    <glyph glyph-name="uniE63F" unicode="&#xe63f;" 
d="M623 431q0 -21 14.5 -35.5t35.5 -14.5t36 14.5t15 35.5t-15 36t-36 15t-35.5 -15t-14.5 -36zM931 685q0 12 -3.5 23t-10.5 20t-16 16t-20 10.5t-23 3.5h-692q-20 0 -36.5 -10t-26.5 -26.5t-10 -36.5v-507q0 -31 21.5 -52.5t51.5 -21.5h252l94 -94l94 94h252q20 0 37 10
t26.5 27t9.5 37v82v2v423zM876 201q0 -17 -12 -29.5t-29 -12.5h-256l-67 -67l-67 67h-255q-18 0 -30 12.5t-12 29.5v461q0 8 3.5 15.5t9 13t13 9t16.5 3.5h645q5 0 10.5 -1.5t10 -4t8.5 -6.5t6.5 -8.5t4 -10t1.5 -10.5v-397v-36v-28zM461 431q0 -21 15 -35.5t36 -14.5
q6 0 11.5 1t10.5 3.5t9.5 6t8 8t6 9.5t4 10.5t1.5 11.5q0 21 -15 36t-36 15t-36 -15t-15 -36zM300 431q0 -21 15 -35.5t36 -14.5t35.5 14.5t14.5 35.5t-14.5 36t-35.5 15t-36 -15t-15 -36z" />
    <glyph glyph-name="uniE640" unicode="&#xe640;" 
d="M880 613l-140 140q-26 25 -60 25q-29 0 -49 -20l-467 -466l-1 -3v-1l-46 -264q-1 -7 0.5 -14t6.5 -12q8 -8 19 -8l7 1l263 45l6 2l466 466q20 20 20 49q0 34 -25 60zM175 49l31 193l162 -162zM756 457l-345 -345l-172 172l346 346zM628 673l44 44q3 3 6.5 4t8 1t8.5 -2
t7 -5l140 -140q3 -3 5 -7t2 -8.5t-1 -8t-4 -6.5l-45 -45z" />
    <glyph glyph-name="uniE641" unicode="&#xe641;" 
d="M914 464q-4 20 -15 31.5t-26 11.5h-4q-41 0 -70 29t-29 70q0 17 9 38q5 11 4.5 23t-6.5 23.5t-16 18.5l-103 57h-1q-11 5 -22.5 5t-23 -4.5t-18.5 -12.5q-14 -14 -37 -29t-42 -15t-42 15.5t-37 29.5q-6 6 -13.5 10t-16 5.5t-17.5 1t-17 -3.5l-106 -58l-2 -1
q-15 -11 -20 -29.5t2 -35.5q9 -21 9 -38q0 -41 -29 -70t-70 -29h-5q-14 0 -25 -11.5t-15 -31.5q-9 -43 -9 -80q0 -38 9 -81q2 -12 8 -22t14.5 -15t18.5 -5h4q41 0 70 -29t29 -70q0 -18 -9 -38q-7 -17 -2 -35.5t20 -29.5l101 -56l1 -1q16 -7 34.5 -3t30.5 16q14 16 37.5 31.5
t42.5 15.5q20 0 43.5 -16.5t37.5 -31.5q16 -18 42 -18q12 0 22 4l104 58l2 1q15 11 20 29.5t-2 35.5q-9 21 -9 38q0 41 29 70t70 29h5q14 0 25 11.5t15 30.5q9 45 9 81q0 35 -9 80zM863 384q0 -25 -7 -64q-61 -5 -103 -50.5t-42 -107.5q0 -27 11 -57l-89 -49q-3 4 -7 8
l-12 10q-8 7 -16 13q-12 9 -23 15.5t-22 10.5t-22 6.5t-21 2.5q-41 0 -88 -34q-19 -15 -34 -31l-86 48q4 12 7.5 26.5t3.5 30.5q0 62 -42 107.5t-103 50.5q-7 38 -7 64q0 10 1.5 24t2.5 22.5t3 17.5q30 2 57 15.5t46.5 34.5t30.5 49t11 59q0 11 -2 23t-4 19t-5 14l91 50
q2 -1 4 -3t5.5 -5t7 -6.5t8.5 -7.5t10 -7q46 -33 86 -33t85 32q9 6 17.5 13t11.5 9l6 7l88 -49q-11 -29 -11 -56q0 -62 42 -107.5t103 -50.5q7 -39 7 -64zM510 530q-29 0 -56.5 -11.5t-47 -31t-31 -46.5t-11.5 -57q0 -39 19.5 -73t53.5 -53.5t73 -19.5q61 0 103.5 43
t42.5 103.5t-42.5 103t-103.5 42.5zM597 384q0 -23 -11.5 -43t-31.5 -31.5t-44 -11.5q-36 0 -61 25.5t-25 60.5q0 24 11.5 44t31.5 31.5t43.5 11.5t43.5 -11.5t31.5 -31.5t11.5 -44z" />
    <glyph glyph-name="uniE642" unicode="&#xe642;" 
d="M816 687q-25 25 -52.5 44.5t-57 35t-61.5 25.5t-65.5 15.5t-67.5 5.5q-57 0 -111.5 -14.5t-103 -42.5t-88.5 -69q-61 -60 -93.5 -138.5t-32.5 -164.5q0 -43 8.5 -84.5t24 -80t39 -73.5t54.5 -65q60 -61 138.5 -93.5t164.5 -32.5t164.5 32.5t138.5 93.5q83 82 112 192.5
t0 221t-111 192.5zM776 120q-53 -53 -121 -81t-143 -28t-143 28t-121 81q-109 109 -109 264t109 264q53 53 121 81t143 28t143 -28t121 -81t81 -121t28 -143t-28 -143t-81 -121zM668 389q15 5 15 21q0 6 -3 11t-8 7.5t-10 2.5h-130v40l133 132v1q2 3 2 8q1 2 0.5 3.5t-1 3.5
t-1 3.5t-1.5 3t-2 2.5q-6 6 -16 6q-9 0 -15 -5l-120 -119l-128 126l-4 2q-2 1 -4.5 1.5t-4.5 0.5q-12 0 -17 -6q-11 -12 -2 -26l2 -4l135 -132v-41l-135 -1h-1q-15 -5 -15 -20.5t15 -20.5l3 -1h133v-67l-135 -1h-1q-15 -5 -15 -20.5t15 -20.5l3 -1h133v-133l1 -2
q5 -15 20.5 -15t20.5 15l1 4v131l136 1h1q15 5 15 21q0 5 -3 10t-8 8t-11 3h-129v67z" />
    <glyph glyph-name="uniE643" unicode="&#xe643;" 
d="M888 134h-132q-5 0 -10.5 2.5t-9.5 6t-6 9t-2 11.5v337q-2 88 -64.5 148t-151.5 60q-58 0 -107.5 -27.5t-78.5 -75t-30 -105.5v-292q2 -6 5 -14.5t14 -29.5t24 -36.5t35 -26t47 -6.5q3 10 11.5 17.5t17 10.5t16.5 3h93q24 0 40.5 -17t16.5 -41v-17q0 -24 -16.5 -41
t-40.5 -17h-85q-18 0 -32.5 10.5t-20.5 26.5h-5q-3 0 -8.5 0.5t-10.5 1.5q-25 9 -46.5 22.5t-35.5 27t-24 26t-15 19.5l-4 8q-2 -1 -4 -1h-132q-5 0 -9.5 1.5t-8 4t-6 6t-4 8t-1.5 9.5v293q0 12 8.5 20.5t20.5 8.5h94v15v0q2 184 160 249q61 25 117 26h5h5l50 -6
q143 -27 198 -138q28 -57 29 -131v-1v-14h94q12 0 20.5 -8.5t8.5 -20.5v-293q0 -12 -8.5 -20.5t-20.5 -8.5zM236 401q0 7 -3.5 12t-8.5 5h-49q-4 0 -7.5 -5t-3.5 -12v-181q0 -3 0.5 -5.5t1.5 -4.5t2.5 -4t3.5 -2.5t3 -0.5h49q5 0 8.5 5t3.5 12v181zM860 401q0 7 -3.5 12
t-7.5 5h-49q-2 0 -3.5 -0.5t-2.5 -1.5t-2 -2.5t-2 -3.5t-1.5 -4.5t-0.5 -4.5v-181q1 -16 12 -17h49q4 0 7.5 5t3.5 12v181zM860 401z" />
    <glyph glyph-name="uniE644" unicode="&#xe644;" 
d="M822 694q-84 84 -197 113.5t-226 0t-197 -113.5t-113.5 -197t0 -226t113.5 -197t197 -113.5t226 0t197 113.5t113.5 197t0 226t-113.5 197zM777 119q-54 -54 -124 -82t-141 -28t-141 28t-124 82q-72 72 -97.5 168.5t0 193t97.5 168.5t168.5 97.5t193 0t168.5 -97.5
q36 -36 61 -80t37 -90t12 -95t-12 -95t-37 -90t-61 -80zM736 414h-192l1 190q0 13 -9 22.5t-22 9.5q-8 0 -15.5 -4t-11.5 -11.5t-4 -15.5l-1 -191l-189 1q-9 0 -16 -4.5t-11.5 -11.5t-4.5 -16q0 -13 9.5 -22t22.5 -9h188l-1 -189q0 -4 1 -7.5t2.5 -6.5t3.5 -5.5t4.5 -5t6 -4
t7 -2.5t6.5 -1q7 0 12.5 2.5t10.5 7.5q9 9 9 21l1 190l192 -1q13 0 22 9.5t9 22.5q0 8 -4 15t-11.5 11.5t-15.5 4.5z" />
    <glyph glyph-name="uniE645" unicode="&#xe645;" 
d="M512 642q69 0 118 -46t49 -111q0 -38 -19 -72l135 -98q12 9 27 13.5t32 4.5q27 0 51 -13t37.5 -35t13.5 -49q0 -39 -30 -67.5t-72.5 -28.5t-72.5 28.5t-30 67.5q0 18 7 35l-135 98q-35 -30 -81 -37v-150q46 -10 75.5 -44.5t29.5 -79.5q0 -52 -39.5 -89t-95 -37t-95 37
t-39.5 89q0 45 29.5 79.5t74.5 44.5v150q-46 7 -80 37l-135 -98q7 -17 7 -35q0 -39 -30.5 -67.5t-72.5 -28.5t-72.5 28.5t-30.5 68t30.5 68t72.5 28.5q32 0 59 -18l135 98q-19 34 -19 72q0 65 48.5 111t117.5 46v0z" />
    <glyph glyph-name="uniE646" unicode="&#xe646;" 
d="M190 324h297v-179q0 -5 2.5 -9t7 -6.5t9.5 -2.5t9.5 2.5t6.5 6.5t2 9v179h298v-197q0 -8 5.5 -13.5t13.5 -5.5q7 0 12.5 5.5t5.5 13.5v204q0 4 -1 8t-3 7.5t-5 6t-6 4.5t-7 3.5t-8 1.5h-305v81q0 2 -0.5 4.5t-1.5 4.5t-3 4t-4 3t-4.5 1.5t-4.5 0.5q-4 0 -7.5 -1.5t-6 -4
t-4 -6t-1.5 -6.5v-81h-304q-12 0 -21 -9t-9 -22v-204q0 -5 2.5 -9.5t6.5 -7t9 -2.5q8 0 13.5 5.5t5.5 13.5v197v0zM264 78h-186q-5 0 -9 -2.5t-6.5 -7t-2.5 -9.5v-180q0 -7 5.5 -12.5t12.5 -5.5h186q8 0 13.5 5.5t5.5 12.5v180q0 6 -2.5 10t-7 6.5t-9.5 2.5v0zM599 78h-186
q-5 0 -9.5 -2.5t-7 -7t-2.5 -9.5v-180q0 -7 5.5 -12.5t13.5 -5.5h186q8 0 13 5.5t5 12.5v180q0 8 -5 13.5t-13 5.5v0zM934 78h-186q-8 0 -13.5 -5.5t-5.5 -13.5v-180q0 -2 0.5 -4.5t2.5 -4.5l2 -4q2 -2 4 -3t4.5 -1.5t5.5 -0.5h186q7 0 12.5 5.5t5.5 12.5v180q0 4 -1.5 7.5
t-4 6t-6 4t-6.5 1.5v0zM357 492h298q7 0 12.5 5.5t5.5 12.5v223q0 4 -1.5 7t-4 5.5t-6 4t-6.5 1.5h-298q-3 0 -5.5 -1t-5 -2.5t-4 -4t-2.5 -5t-1 -5.5v-223q3 -16 18 -18v0zM357 492z" />
  </font>
</defs>
</svg>
